HIERARCHY
ROOT Hips
{
	OFFSET 0.000000 0.000000 0.000000
	CHANNELS 6 Xposition Yposition Zposition Zrotation Yrotation Xrotation 
	JOINT LHipJoint
	{
		OFFSET 0.000000 0.000000 0.000000
		CHANNELS 3 Zrotation Yrotation Xrotation
		JOINT LeftUpLeg
		{
			OFFSET 1.363060 -1.794630 0.839290
			CHANNELS 3 Zrotation Yrotation Xrotation
			JOINT LeftLeg
			{
				OFFSET 2.448110 -6.726130 0.000000
				CHANNELS 3 Zrotation Yrotation Xrotation
				JOINT LeftFoot
				{
					OFFSET 2.562200 -7.039590 0.000000
					CHANNELS 3 Zrotation Yrotation Xrotation
					JOINT LeftToeBase
					{
						OFFSET 0.157640 -0.433110 2.322550
						CHANNELS 3 Zrotation Yrotation Xrotation
						End Site
						{
							OFFSET 0.000000 0.000000 0.000000
						}
					}
				}
			}
		}
	}
	JOINT RHipJoint
	{
		OFFSET 0.000000 0.000000 0.000000
		CHANNELS 3 Zrotation Yrotation Xrotation
		JOINT RightUpLeg
		{
			OFFSET -1.305520 -1.794630 0.839290
			CHANNELS 3 Zrotation Yrotation Xrotation
			JOINT RightLeg
			{
				OFFSET -2.542530 -6.985550 0.000000
				CHANNELS 3 Zrotation Yrotation Xrotation
				JOINT RightFoot
				{
					OFFSET -2.568260 -7.056230 0.000000
					CHANNELS 3 Zrotation Yrotation Xrotation
					JOINT RightToeBase
					{
						OFFSET -0.164730 -0.452590 2.363150
						CHANNELS 3 Zrotation Yrotation Xrotation
						End Site
						{
							OFFSET 0.000000 0.000000 0.000000
						}
					}
				}
			}
		}
	}
	JOINT LowerBack
	{
		OFFSET 0.000000 0.000000 0.000000
		CHANNELS 3 Zrotation Yrotation Xrotation
		JOINT Spine
		{
			OFFSET 0.028270 2.035590 -0.193380
			CHANNELS 3 Zrotation Yrotation Xrotation
			JOINT Spine1
			{
				OFFSET 0.056720 2.048850 -0.042750
				CHANNELS 3 Zrotation Yrotation Xrotation
				JOINT Neck
				{
					OFFSET 0.000000 0.000000 0.000000
					CHANNELS 3 Zrotation Yrotation Xrotation
					JOINT Neck1
					{
						OFFSET -0.054170 1.746240 0.172020
						CHANNELS 3 Zrotation Yrotation Xrotation
						JOINT Head
						{
							OFFSET 0.104070 1.761360 -0.123970
							CHANNELS 3 Zrotation Yrotation Xrotation
							End Site
							{
								OFFSET 0.000000 0.000000 0.000000
							}
						}
					}
				}
				JOINT LeftShoulder
				{
					OFFSET 0.000000 0.000000 0.000000
					CHANNELS 3 Zrotation Yrotation Xrotation
					JOINT LeftArm
					{
						OFFSET 3.362410 1.200890 -0.311210
						CHANNELS 3 Zrotation Yrotation Xrotation
						JOINT LeftForeArm
						{
							OFFSET 4.983000 -0.000000 -0.000000
							CHANNELS 3 Zrotation Yrotation Xrotation
							JOINT LeftHand
							{
								OFFSET 3.483560 -0.000000 -0.000000
								CHANNELS 3 Zrotation Yrotation Xrotation
								JOINT LeftFingerBase
								{
									OFFSET 0.000000 0.000000 0.000000
									CHANNELS 3 Zrotation Yrotation Xrotation
									JOINT LeftHandIndex1
									{
										OFFSET 0.715260 -0.000000 -0.000000
										CHANNELS 3 Zrotation Yrotation Xrotation
										End Site
										{
											OFFSET 0.000000 0.000000 0.000000
										}
									}
								}
								JOINT LThumb
								{
									OFFSET 0.000000 0.000000 0.000000
									CHANNELS 3 Zrotation Yrotation Xrotation
									End Site
									{
										OFFSET 0.000000 0.000000 0.000000
									}
								}
							}
						}
					}
				}
				JOINT RightShoulder
				{
					OFFSET 0.000000 0.000000 0.000000
					CHANNELS 3 Zrotation Yrotation Xrotation
					JOINT RightArm
					{
						OFFSET -3.136600 1.374050 -0.404650
						CHANNELS 3 Zrotation Yrotation Xrotation
						JOINT RightForeArm
						{
							OFFSET -5.241900 -0.000000 -0.000000
							CHANNELS 3 Zrotation Yrotation Xrotation
							JOINT RightHand
							{
								OFFSET -3.444170 -0.000000 -0.000000
								CHANNELS 3 Zrotation Yrotation Xrotation
								JOINT RightFingerBase
								{
									OFFSET 0.000000 0.000000 0.000000
									CHANNELS 3 Zrotation Yrotation Xrotation
									JOINT RightHandIndex1
									{
										OFFSET -0.622530 -0.000000 -0.000000
										CHANNELS 3 Zrotation Yrotation Xrotation
										End Site
										{
											OFFSET 0.000000 0.000000 0.000000
										}
									}
								}
								JOINT RThumb
								{
									OFFSET 0.000000 0.000000 0.000000
									CHANNELS 3 Zrotation Yrotation Xrotation
									End Site
									{
										OFFSET 0.000000 0.000000 0.000000
									}
								}
							}
						}
					}
				}
			}
		}
	}
}
MOTION
Frames: 10
Frame Time: 0.008333
4.653949 16.864592 -7.707706 -177.677758 37.252232 -172.676394 -8.227217 1.841627 0.501501 -20.613357 13.605515 -34.103071 -2.621777 0.537457 28.523617 2.360614 10.626938 -14.428559 178.648000 -0.000000 -1.363500 12.705759 -3.972321 -1.484407 -6.406507 -21.635854 -1.930672 -0.074799 -2.515318 35.483136 -1.007425 1.497771 23.604832 1.230700 0.000000 -91.689300 -7.563782 2.478291 -0.521211 -1.989402 2.889214 -3.339152 -3.745820 2.795413 -0.761966 3.004954 -2.726821 -9.175253 -1.016775 -0.058150 -0.424248 0.000000 0.000000 0.000000 -8.555750 20.435504 2.253467 -50.246382 31.393106 5.021158 -4.824747 -25.114718 -0.024325 -0.750455 8.133585 -0.042819 -0.159901 -0.112796 0.000000 0.000000 0.000000 0.000000 0.000000 0.000000 0.000000 -1.702266 4.891954 0.739051 17.772142 31.158690 2.445348 -0.038463 66.942386 -0.023614 -2.735239 4.975910 -0.128434 -0.026173 -0.447632 0.000000 0.000000 0.000000 0.000000 0.000000 0.000000 0.000000 
4.696648 16.811174 -7.824068 -178.129202 36.802317 -173.172976 -8.192255 1.896584 0.317708 -21.068961 13.731348 -34.061463 -2.612613 0.690837 30.198534 2.327071 10.268197 -15.210573 178.489700 -0.000000 -1.341300 12.831376 -3.768204 -1.605249 -7.190856 -21.770618 -2.921913 -0.221599 -2.667767 38.594235 -1.168182 0.795854 24.021902 0.963300 0.000000 -89.035401 -7.765413 2.310490 -0.141422 -2.029127 2.733526 -3.281481 -3.814316 2.646666 -0.819006 3.207067 -2.562425 -9.234650 -1.127559 -0.065318 -0.451569 0.000000 0.000000 0.000000 -8.964786 20.233880 2.371710 -51.041696 30.131535 4.354200 -4.847152 -24.050811 -0.024299 -0.698611 8.387720 -0.040543 -0.155910 -0.105270 0.000000 0.000000 0.000000 0.000000 0.000000 0.000000 0.000000 -1.181350 5.077314 0.742004 19.034924 31.243850 2.511391 -0.010902 67.170912 -0.023589 -2.727802 5.031938 -0.129406 -0.026046 -0.449304 0.000000 0.000000 0.000000 0.000000 0.000000 0.000000 0.000000 
4.735009 16.755336 -7.936968 -178.575363 36.327388 -173.657773 -8.165531 1.932326 0.150451 -21.465352 13.666064 -33.916729 -2.589832 0.831582 31.812495 2.325551 10.050232 -16.099394 178.304600 0.000000 -1.264300 12.938440 -3.544343 -1.752497 -7.922668 -21.858205 -3.963538 -0.359858 -2.837695 41.796054 -1.337356 -0.273323 24.061302 0.491200 0.000000 -85.700901 -7.936698 2.140736 0.272880 -2.061790 2.574475 -3.216761 -3.884889 2.495125 -0.874719 3.404355 -2.392285 -9.294704 -1.247873 -0.073133 -0.480550 0.000000 0.000000 0.000000 -9.400977 19.984909 2.500124 -51.854755 28.641012 3.691554 -4.872078 -22.804504 -0.024113 -0.673101 8.599044 -0.039964 -0.151632 -0.095952 0.000000 0.000000 0.000000 0.000000 0.000000 0.000000 0.000000 -0.637204 5.272870 0.756834 20.364898 31.276826 2.538003 0.018449 67.396587 -0.023241 -2.663212 5.144277 -0.128875 -0.026761 -0.451564 0.000000 0.000000 0.000000 0.000000 0.000000 0.000000 0.000000 
4.769735 16.698102 -8.046446 -179.019475 35.830211 -174.133047 -8.143818 1.951552 -0.001894 -21.820545 13.430801 -33.662771 -2.557559 0.958200 33.334010 2.354539 9.972573 -17.071828 178.091500 0.000000 -1.141100 13.030506 -3.305871 -1.921603 -8.600733 -21.894089 -5.052637 -0.494503 -3.028198 45.053653 -1.514966 -1.701926 23.694068 -0.167600 -0.000000 -81.865700 -8.087175 1.973703 0.716884 -2.090436 2.417145 -3.146289 -3.959355 2.345701 -0.928856 3.603540 -2.218217 -9.350195 -1.377771 -0.081667 -0.509829 0.000000 0.000000 0.000000 -9.841829 19.683225 2.636882 -52.675813 26.912763 3.028336 -4.897691 -21.366016 -0.023679 -0.665758 8.739170 -0.040380 -0.147086 -0.084727 0.000000 0.000000 0.000000 0.000000 0.000000 0.000000 0.000000 -0.061862 5.476581 0.783125 21.771985 31.236929 2.523842 0.050000 67.612711 -0.022740 -2.567018 5.326030 -0.128241 -0.027878 -0.454608 0.000000 0.000000 0.000000 0.000000 0.000000 0.000000 0.000000 
4.801640 16.640689 -8.152644 -179.465207 35.313251 -174.602086 -8.123535 1.957723 -0.142494 -22.155197 13.058947 -33.299968 -2.520152 1.070182 34.736236 2.410073 10.021544 -18.098052 177.851400 -0.000001 -0.985400 13.111874 -3.057985 -2.106030 -9.226358 -21.873869 -6.184723 -0.630141 -3.239964 48.323831 -1.701386 -3.441857 22.920737 -0.963100 -0.000000 -77.709901 -8.227865 1.814309 1.185044 -2.118328 2.266907 -3.071988 -4.039225 2.203534 -0.983329 3.809437 -2.034552 -9.393822 -1.516737 -0.090973 -0.537447 0.000000 0.000000 0.000000 -10.265243 19.324261 2.780522 -53.494007 24.945785 2.355480 -4.920840 -19.736193 -0.022918 -0.655155 8.789344 -0.040088 -0.142234 -0.071558 0.000000 0.000000 0.000000 0.000000 0.000000 0.000000 0.000000 0.546189 5.693551 0.818438 23.279608 31.087534 2.469309 0.084075 67.816220 -0.022361 -2.482380 5.589115 -0.129602 -0.028670 -0.458621 0.000000 0.000000 0.000000 0.000000 0.000000 0.000000 0.000000 
4.831591 16.584500 -8.255845 -179.915308 34.779988 -175.066569 -8.101388 1.954717 -0.275358 -22.487498 12.592259 -32.833307 -2.481716 1.167696 35.996209 2.486225 10.173399 -19.142288 177.588600 0.000000 -0.813400 13.186697 -2.805856 -2.297712 -9.799478 -21.793000 -7.353767 -0.770107 -3.470942 51.554945 -1.896553 -5.411922 21.774329 -1.822201 0.000000 -73.439400 -8.369199 1.666802 1.670946 -2.148988 2.128350 -2.994568 -4.127706 2.073058 -1.035128 4.033089 -1.855233 -9.423845 -1.664758 -0.101054 -0.562984 0.000000 0.000000 0.000000 -10.648684 18.914958 2.927532 -54.299367 22.732315 1.661276 -4.936583 -17.924146 -0.021774 -0.607228 8.741198 -0.036489 -0.136908 -0.056516 0.000000 0.000000 0.000000 0.000000 0.000000 0.000000 0.000000 1.205168 5.907599 0.861561 24.878887 30.827568 2.385411 0.120245 67.997118 -0.022295 -2.443198 5.913983 -0.134458 -0.028547 -0.463251 -0.000000 0.000000 0.000000 0.000000 0.000000 0.000000 0.000000 
4.860444 16.530975 -8.356443 179.628741 34.234353 -175.527403 -8.074732 1.946813 -0.404588 -22.831821 12.075229 -32.270413 -2.445946 1.251429 37.095120 2.575628 10.396871 -20.166277 177.311600 -0.000000 -0.640200 13.258435 -2.554000 -2.488297 -10.321301 -21.648436 -8.553776 -0.916104 -3.716995 54.694836 -2.098138 -7.504366 20.307705 -2.660500 -0.000001 -69.190300 -8.519146 1.533555 2.167583 -2.185111 2.004177 -2.916400 -4.227900 1.956688 -1.088548 4.284930 -1.677691 -9.432785 -1.823417 -0.112133 -0.584388 0.000000 0.000000 0.000000 -10.975530 18.463747 3.074822 -55.078953 20.286191 0.937100 -4.938885 -15.962871 -0.020240 -0.483158 8.597230 -0.026879 -0.130794 -0.039809 0.000000 0.000000 0.000000 0.000000 0.000000 0.000000 0.000000 1.937843 6.117790 0.901263 26.561669 30.416700 2.331887 0.155755 68.139185 -0.024429 -2.729485 6.405705 -0.162499 -0.023158 -0.470231 -0.000000 0.000000 0.000000 0.000000 0.000000 0.000000 0.000000 
4.889020 16.481483 -8.454877 179.166624 33.675813 -175.984652 -8.041628 1.937159 -0.533299 -23.197738 11.550066 -31.618880 -2.415466 1.321533 38.018019 2.669989 10.655642 -21.132063 177.032600 -0.000000 -0.476300 13.329643 -2.308122 -2.669319 -10.793065 -21.441904 -9.778182 -1.067432 -3.973247 57.692175 -2.300841 -9.597923 18.589515 -3.397300 -0.000001 -65.065501 -8.682903 1.421457 2.665599 -2.228203 1.901269 -2.838650 -4.339087 1.861000 -1.140401 4.552297 -1.501919 -9.417740 -1.983632 -0.123483 -0.600498 0.000000 0.000000 0.000000 -11.234616 17.960139 3.219393 -55.826291 17.627931 0.165161 -4.922469 -13.895021 -0.018376 -0.237615 8.363394 -0.008659 -0.123569 -0.021688 0.000000 0.000000 0.000000 0.000000 0.000000 0.000000 0.000000 2.687550 6.320748 0.947479 28.411186 29.861436 2.210154 0.194857 68.238022 -0.025599 -2.892461 6.818828 -0.183042 -0.019496 -0.475112 -0.000000 0.000000 0.000000 0.000000 0.000000 0.000000 0.000000 
4.918023 16.437341 -8.551749 178.701144 33.106092 -176.433968 -8.001600 1.929371 -0.663760 -23.586351 11.053936 -30.888248 -2.392775 1.378767 38.753596 2.760911 10.912326 -22.005959 176.766500 0.000000 -0.326100 13.400964 -2.071901 -2.834024 -11.213037 -21.176537 -11.021320 -1.222260 -4.232961 60.499119 -2.496378 -11.572030 16.698555 -3.969000 -0.000000 -61.163400 -8.859750 1.330236 3.156407 -2.278709 1.819358 -2.763586 -4.463902 1.785372 -1.194959 4.840347 -1.326021 -9.373583 -2.145273 -0.135155 -0.609652 0.000000 0.000000 0.000000 -11.420694 17.420596 3.357673 -56.530379 14.788326 -0.635703 -4.881303 -11.794092 -0.016325 0.162471 8.053060 0.019273 -0.114785 -0.002679 -0.000000 0.000000 0.000000 0.000000 0.000000 0.000000 0.000000 3.465747 6.512814 0.986789 30.419621 29.133680 2.077572 0.234066 68.260976 -0.027596 -3.196148 7.261734 -0.215181 -0.013617 -0.479519 -0.000000 0.000000 0.000000 0.000000 0.000000 0.000000 0.000000 
4.947948 16.399661 -8.647790 178.239485 32.524765 -176.867306 -7.955569 1.926066 -0.796459 -23.991164 10.615278 -30.088724 -2.379623 1.423635 39.294708 2.840494 11.130928 -22.761070 176.529500 0.000000 -0.187100 13.471218 -1.848792 -2.977198 -11.575290 -20.859337 -12.278374 -1.377029 -4.488881 63.073192 -2.673911 -13.316041 14.713641 -4.336300 0.000000 -57.556899 -9.043542 1.258798 3.630045 -2.335816 1.757129 -2.692581 -4.604813 1.728169 -1.252082 5.150548 -1.163447 -9.300642 -2.305597 -0.146923 -0.611449 0.000000 0.000000 0.000000 -11.537180 16.849878 3.484570 -57.184038 11.820150 -1.431111 -4.811885 -9.766295 -0.014312 0.734585 7.683067 0.056012 -0.104179 0.016465 -0.000000 0.000000 0.000000 0.000000 0.000000 0.000000 0.000000 4.271688 6.674699 1.016138 32.581207 28.251990 1.950201 0.272301 68.168055 -0.030521 -3.664431 7.721883 -0.262315 -0.005322 -0.482898 -0.000000 0.000000 0.000000 0.000000 0.000000 0.000000 0.000000 
